<?xml version="1.0" standalone="no"?>
<!DOCTYPE svg PUBLIC "-//W3C//DTD SVG 20010904//EN"
 "http://www.w3.org/TR/2001/REC-SVG-20010904/DTD/svg10.dtd">
<svg version="1.0" xmlns="http://www.w3.org/2000/svg"
 width="500.000000pt" height="500.000000pt" viewBox="0 0 500.000000 500.000000"
 preserveAspectRatio="xMidYMid meet">

<g transform="translate(0.000000,500.000000) scale(0.100000,-0.100000)"
fill="#000000" stroke="none">
<path d="M2253 3904 c-159 -26 -341 -95 -488 -182 -267 -159 -497 -436 -602
-725 -26 -73 -63 -202 -63 -224 0 -10 92 -13 425 -13 l425 0 0 283 c0 207 3
286 12 295 15 15 460 16 563 2 232 -34 414 -125 533 -269 62 -74 125 -199 154
-306 32 -118 32 -383 0 -504 -60 -229 -196 -399 -397 -496 -161 -78 -218 -87
-548 -92 -218 -4 -291 -2 -302 7 -13 10 -15 58 -15 291 l0 279 -425 0 c-384 0
-425 -2 -425 -16 0 -26 29 -132 60 -221 139 -395 472 -723 875 -861 165 -56
239 -67 465 -67 226 0 300 11 465 67 403 138 736 466 875 861 31 89 60 195 60
221 0 14 -31 16 -296 16 l-296 0 7 38 c24 129 24 318 -1 440 l-6 32 296 0
c230 0 296 3 296 13 0 22 -37 151 -63 224 -104 288 -336 566 -602 725 -151 90
-330 156 -497 183 -115 19 -372 18 -485 -1z"/>
<path d="M2170 2510 l0 -643 168 6 c264 8 403 57 522 184 49 52 120 163 120
188 0 3 -162 5 -360 5 l-360 0 0 255 0 255 365 2 365 3 -38 75 c-47 95 -124
173 -219 223 -112 58 -201 78 -395 84 l-168 6 0 -643z"/>
</g>
</svg>
